# xmcd
#
# Track frame offsets: 
#        182
#        19260
#        43005
#        63740
#        82437
#        98237
#        115055
#        146095
#        163002
#        187512
#        203540
#
# Disc length: 3093 seconds
#
# Revision: 0
# Processed by: cddbd v1.5.2PL0 Copyright (c) Steve Scherf et al.
# Submitted via: ExactAudioCopy v0.99pb4
#
DISCID=960c130b
DTITLE=Blues In My Kitchen - Live à la Nef
DYEAR=1997
DGENRE=Blues
TTITLE0=Prison Bound
TTITLE1=Bad Boy
TTITLE2=Help Me
TTITLE3=Rock Me Baby
TTITLE4=Big Boss Man
TTITLE5=Louise
TTITLE6=Goin' Down Slow
TTITLE7=You Got Me Dizzy
TTITLE8=Gonna Need My Help
TTITLE9=Got My Mojo Working
TTITLE10=Hoochie Coochie Man
EXTD=
EXTT0=
EXTT1=
EXTT2=
EXTT3=
EXTT4=
EXTT5=
EXTT6=
EXTT7=
EXTT8=
EXTT9=
EXTT10=
PLAYORDER=
